<?xml version="1.0" encoding="UTF-8"?>
<svg id="Layer_2" xmlns="http://www.w3.org/2000/svg" viewBox="0 0 56.88 55.51">
  <defs>
    <style>
      .cls-1 {
        fill: #fff;
      }
    </style>
  </defs>
  <g id="Layer_1-2" data-name="Layer_1">
    <g>
      <path class="cls-1" d="M56.88,8.98v37.55c-.09.43-.18.86-.28,1.29-1.16,4.6-5.14,7.68-9.97,7.68-11.92,0-23.84,0-35.76,0-.63,0-1.26-.03-1.88-.09C4.07,54.99.02,50.62,0,45.69,0,33.73,0,21.78.02,9.82c0-.71.11-1.44.28-2.14C1.43,3.14,5.39.03,10.09.01c4.41-.02,8.81,0,13.22,0,7.79,0,15.59,0,23.38,0,4.48,0,8.33,2.76,9.69,6.94.22.66.34,1.36.5,2.03ZM32.34,39.2c.72,0,1.44,0,2.17,0,.62,0,.67-.07.47-.63-2.82-7.97-5.65-15.93-8.46-23.9-.12-.34-.3-.45-.65-.45-1.83.01-3.67.02-5.5,0-.48,0-1.99,5.59-2.54,7.18-1.97,5.68-3.95,11.37-5.92,17.05-.24.69-.19.75.55.75,1.26,0,2.52-.01,3.78,0,.45,0,.66-.16.79-.58.5-1.62,1.05-3.23,1.55-4.85.11-.35.26-.48.65-.48,2.61.02,5.22.02,7.83,0,.39,0,.58.11.71.5.53,1.63,1.12,3.25,1.66,4.88.13.4.34.56.76.54.72-.03,1.44,0,2.17,0ZM37.64,20.29c-.02.32-.04.58-.04.83,0,3.61,0,7.22,0,10.82,0,2.2,0,4.4,0,6.6,0,.5.16.68.68.67,1.35-.03,2.7-.03,4.05,0,.44,0,.57-.15.57-.58,0-5.94-.01-11.88,0-17.82,0-.43-.16-.54-.56-.53-.76.02-1.52,0-2.28,0-.79,0-1.58,0-2.42,0ZM43.22,15.28c0-1.75-1.18-2.94-2.9-2.95-1.71,0-3,1.28-2.99,2.97,0,1.76,1.2,2.96,2.96,2.97,1.71.02,2.93-1.23,2.93-2.99Z"/>
      <path class="cls-1" d="M23.14,18.69c1,3.25,1.99,6.49,3,9.79h-6.03c.98-3.29,1.94-6.53,2.9-9.78.04,0,.08,0,.12-.01Z"/>
    </g>
  </g>
</svg>