<?xml version="1.0" encoding="UTF-8"?>
<svg id="Layer_2" xmlns="http://www.w3.org/2000/svg" viewBox="0 0 56.69 55.33">
  <defs>
    <style>
      .cls-1 {
        fill: #fff;
      }
    </style>
  </defs>
  <g id="Layer_1-2" data-name="Layer_1">
    <g>
      <path class="cls-1" d="M0,46.49C0,33.94,0,21.39,0,8.84c.1-.41.19-.81.29-1.22C1.47,3.05,5.42,0,10.2,0c11.99,0,23.99,0,35.98,0,.5,0,1,.03,1.49.08,5.11.5,9.01,4.78,9.01,9.92,0,11.77,0,23.55,0,35.32,0,2.05-.57,3.94-1.75,5.61-2.04,2.91-4.89,4.37-8.42,4.39-6.5.03-12.99,0-19.49,0-5.63,0-11.26.01-16.88,0-4.74-.01-8.69-3.07-9.86-7.62C.19,47.3.1,46.89,0,46.49ZM36.53,19.9c-1.03,0-2.01-.07-2.97.01-2.28.2-4.34.99-6.05,2.55-2.54,2.32-3.48,5.22-3.19,8.62.35,4.08,2.75,7.04,6.71,7.98,3.6.86,7.1.3,10.49-1.02.18-.07.35-.42.35-.63,0-1.09-.11-2.17-.11-3.26-.01-7.12-.01-14.24,0-21.36,0-.5-.12-.67-.64-.65-1.33.04-2.66.03-3.98,0-.48-.01-.64.12-.63.61.03,2.05.01,4.09.01,6.14,0,.31,0,.62,0,1ZM15.35,26.6c0,3.89,0,7.78,0,11.67q0,.8.83.8c1.25,0,2.51-.02,3.76.01.52.01.67-.17.66-.67-.01-7.86-.01-15.71,0-23.57,0-.55-.2-.7-.72-.69-1.25.03-2.51,0-3.76,0-.77,0-.78,0-.78.76,0,3.89,0,7.78,0,11.67Z"/>
      <path class="cls-1" d="M36.53,24.42c0,.13,0,.28,0,.42,0,3.14,0,6.27.01,9.41,0,.47-.15.63-.59.62-.83-.03-1.67.07-2.48-.07-2.21-.4-3.57-1.95-3.78-4.23-.13-1.49-.08-2.95.87-4.23,1.3-1.74,3.83-2.59,5.96-1.92Z"/>
    </g>
  </g>
</svg>