<?xml version="1.0" encoding="UTF-8"?>
<svg id="Layer_2" xmlns="http://www.w3.org/2000/svg" viewBox="0 0 56.69 55.33">
  <defs>
    <style>
      .cls-1 {
        fill: #fff;
      }
    </style>
  </defs>
  <g id="Layer_1-2" data-name="Layer_1">
    <path class="cls-1" d="M56.69,8.95v37.43c-.09.43-.18.86-.28,1.29-1.16,4.59-5.13,7.66-9.93,7.66-11.88,0-23.76,0-35.64,0-.63,0-1.25-.03-1.88-.09C4.05,54.81.02,50.46,0,45.54,0,33.62,0,21.71.02,9.79c0-.71.11-1.44.28-2.13C1.42,3.13,5.37.03,10.06.01c4.39-.02,8.78,0,13.17,0,7.77,0,15.53,0,23.3,0,4.47,0,8.3,2.75,9.66,6.92.22.66.34,1.35.5,2.03ZM19.63,34.31c0-.29,0-.51,0-.73,0-6.24,0-12.47.01-18.71,0-.5-.12-.67-.64-.66-1.25.04-2.51.01-3.76.01q-.83,0-.83.82c0,7.51,0,15.02,0,22.53,0,.31,0,.63,0,.94,0,.38.13.57.55.57,4.87,0,9.74,0,14.62,0,.36,0,.52-.12.58-.49.19-1.24.41-2.47.63-3.7.09-.47-.09-.6-.56-.6-1.99.02-3.99,0-5.98,0-1.51,0-3.02,0-4.62,0ZM33.33,20.23c0,.24,0,.4,0,.56.06,2.21.17,4.42.19,6.64.03,3.6,0,7.2,0,10.8q0,.86.89.86c1.22,0,2.44-.03,3.65.01.56.02.72-.14.72-.71-.03-3.65,0-7.31-.03-10.96,0-.6.18-.98.68-1.25.24-.13.48-.28.73-.38,1.33-.56,2.71-.84,4.15-.77.44.02.58-.12.57-.56-.02-1.33,0-2.66,0-3.99,0-.62-.07-.69-.71-.65-1.53.08-2.92.58-4.14,1.51-.51.39-.97.83-1.46,1.25-.09-.56-.14-1.11-.27-1.64-.08-.33-.18-.71-.64-.72-1.42,0-2.84,0-4.33,0Z"/>
  </g>
</svg>