<?xml version="1.0" encoding="UTF-8"?>
<svg id="Layer_2" xmlns="http://www.w3.org/2000/svg" viewBox="0 0 56.69 55.14">
  <defs>
    <style>
      .cls-1 {
        fill: #fff;
      }
    </style>
  </defs>
  <g id="Layer_1-2" data-name="Layer_1">
    <path class="cls-1" d="M56.69,8.19v39.42c-.11.67-.21,1.34-.35,2-.56,2.71-2.11,4.52-4.88,5.08-1.31.26-2.66.43-4,.43-12.79.03-25.57.03-38.36,0-1.23,0-2.47-.12-3.68-.34-2.69-.5-4.45-2.08-4.97-4.81-.26-1.39-.43-2.81-.43-4.22-.04-11.85-.04-23.69,0-35.54,0-1.53.23-3.09.56-4.59C1.16,3.07,2.61,1.18,5.22.48,6.35.18,7.55.03,8.71.02,21.41,0,34.1,0,46.8.01c1.07,0,2.14.08,3.19.22,3.41.44,5.47,2.3,6.28,5.63.19.76.28,1.55.42,2.32ZM30.42,35.15s.09.02.14.03c2.32-4.39,4.65-8.77,6.95-13.11-2.58-2.35-4.6-4.97-5.22-8.46h-5.3c-.82,3.42-3,5.91-5.24,8.4,2.32,4.36,4.65,8.73,6.98,13.1.04-.02.09-.03.13-.05v-.54c0-2.56,0-5.13,0-7.69,0-.39-.09-.62-.44-.85-.76-.49-1.04-1.46-.76-2.3.29-.86,1.08-1.43,1.97-1.42.87,0,1.68.61,1.96,1.45.28.84-.02,1.79-.79,2.28-.34.21-.41.45-.4.81.01,2.6,0,5.2,0,7.8v.54ZM29.63,42.53c-.12-.21-.21-.36-.3-.52-4.9-8.85-9.8-17.69-14.71-26.54-.22-.4-.46-.8-.73-1.17-.6-.8-1.42-1.05-2.29-.73-.9.33-1.43,1.12-1.42,2.09,0,.72.45,1.22.83,1.77,5.98,8.71,11.96,17.42,17.95,26.13.54.79.85.77,1.32-.08,3.83-6.89,7.66-13.79,11.49-20.68,1.55-2.79,3.09-5.57,4.64-8.36.18-.32.36-.68-.06-.91-.43-.24-.68.06-.85.43-.02.05-.06.09-.08.14-4.35,7.83-8.69,15.66-13.04,23.49-.9,1.63-1.81,3.25-2.74,4.93Z"/>
  </g>
</svg>