<?xml version="1.0" encoding="UTF-8"?>
<svg id="Layer_2" xmlns="http://www.w3.org/2000/svg" viewBox="0 0 56.69 55.33">
  <defs>
    <style>
      .cls-1 {
        fill: #fff;
      }
    </style>
  </defs>
  <g id="Layer_1-2" data-name="Layer_1">
    <g>
      <path class="cls-1" d="M0,46.49c0-12.55,0-25.1,0-37.65.1-.41.19-.81.29-1.22C1.47,3.05,5.42,0,10.2,0c11.99,0,23.99,0,35.98,0,.5,0,1,.03,1.49.08,5.11.5,9.01,4.78,9.01,9.92,0,11.77,0,23.55,0,35.32,0,2.05-.57,3.94-1.75,5.61-2.04,2.91-4.89,4.37-8.42,4.39-6.5.03-12.99,0-19.49,0-5.63,0-11.26.01-16.88,0-4.74-.01-8.69-3.07-9.86-7.62-.1-.4-.2-.81-.29-1.22ZM17.86,31.2c.29,0,.53,0,.76,0,1.51-.07,3.03-.04,4.52-.22,2.41-.3,4.48-1.32,5.96-3.32,1.29-1.74,1.61-3.74,1.46-5.83-.16-2.23-1.02-4.13-2.79-5.56-1.73-1.4-3.77-2.04-5.94-2.09-2.88-.06-5.75.05-8.63.07-.4,0-.44.21-.44.53,0,7.92,0,15.83,0,23.75,0,.42.13.58.58.57,1.29-.03,2.58-.03,3.87,0,.51.01.67-.13.67-.65-.02-2.2-.01-4.39-.01-6.59,0-.2,0-.4,0-.66ZM33.25,33.72c-.04.17-.09.29-.09.42,0,1.27,0,2.55,0,3.82,0,.38.2.55.52.68,1.91.78,3.92.98,5.96.92,1.43-.04,2.83-.28,4.11-.94,1.86-.96,2.94-2.48,3.1-4.59.17-2.25-.77-3.94-2.74-5.02-.98-.54-2.03-.96-3.04-1.44-.83-.4-1.66-.79-2.45-1.25-.39-.23-.61-.65-.48-1.15.12-.47.44-.76.92-.84.47-.08.95-.19,1.42-.17,1.63.05,3.22.3,4.71,1.02.53.26.69.14.69-.46,0-1.09-.02-2.18.01-3.27.02-.52-.19-.75-.67-.9-1.73-.54-3.51-.63-5.3-.57-1.31.04-2.55.32-3.72.94-2.98,1.57-3.94,5.4-2,7.98.61.82,1.38,1.44,2.29,1.88,1.21.59,2.45,1.09,3.67,1.66.46.22.92.48,1.29.83.57.53.39,1.35-.31,1.69-.23.11-.48.19-.73.23-2.01.32-3.92-.08-5.78-.82-.46-.18-.89-.42-1.37-.65Z"/>
      <path class="cls-1" d="M17.99,18.76c1.07,0,2.17-.06,3.26.02.7.05,1.43.22,2.08.49,1.33.54,2.03,1.6,2.13,3.03.11,1.59-.33,2.98-1.87,3.68-.85.39-1.81.61-2.74.75-.83.12-1.69.03-2.54.04-.26,0-.41-.07-.41-.37.01-2.49.01-4.98.02-7.47,0-.03.03-.07.08-.17Z"/>
    </g>
  </g>
</svg>