<?xml version="1.0" encoding="UTF-8"?>
<svg id="Layer_2" xmlns="http://www.w3.org/2000/svg" viewBox="0 0 1136.44 253.62">
  <defs>
    <style>
      .cls-1 {
        fill: #fff;
      }
    </style>
  </defs>
  <g id="Layer_1-2" data-name="Layer_1">
    <g>
      <g>
        <path class="cls-1" d="M35.72,34.02c-1.86-1.28-3.99-2.29-6.37-3.02-2.38-.73-4.81-1.39-7.27-1.99-1.83-.44-3.59-.92-5.28-1.43-1.69-.51-3.17-1.15-4.45-1.95-1.28-.79-2.3-1.8-3.06-3.02-.76-1.22-1.13-2.76-1.13-4.63,0-1.68.28-3.21.85-4.58.57-1.38,1.44-2.55,2.61-3.51,1.17-.96,2.64-1.71,4.42-2.23,1.77-.52,3.86-.78,6.27-.78,3.2.03,6.2.4,9,1.09,2.8.7,5.52,1.6,8.14,2.71V3.51c-2.44-1.05-5.12-1.89-8.05-2.54-2.93-.65-6.09-.97-9.47-.97-2.98,0-5.78.36-8.4,1.09s-4.95,1.85-6.97,3.37-3.61,3.44-4.8,5.77c-1.18,2.33-1.77,5.1-1.77,8.33s.56,5.65,1.68,7.64c1.12,1.99,2.61,3.63,4.46,4.89,1.85,1.27,3.96,2.26,6.32,2.97,2.36.71,4.77,1.35,7.24,1.92,1.87.44,3.65.92,5.34,1.42,1.69.51,3.19,1.16,4.49,1.97,1.3.81,2.33,1.83,3.11,3.06.77,1.23,1.16,2.8,1.16,4.7,0,2.31-.44,4.23-1.33,5.77s-2.09,2.75-3.61,3.63c-1.52.89-3.28,1.52-5.29,1.9-2.01.38-4.12.57-6.34.57-1.36,0-2.82-.09-4.37-.28-1.55-.19-3.09-.45-4.61-.78-1.52-.33-2.99-.74-4.42-1.21s-2.71-1-3.85-1.57v7.07c.73.44,1.72.89,2.99,1.33,1.26.44,2.68.84,4.25,1.19,1.57.35,3.21.63,4.94.83,1.73.21,3.41.31,5.06.31,3.58,0,6.87-.37,9.88-1.12,3.01-.74,5.61-1.88,7.81-3.42s3.93-3.5,5.18-5.89,1.87-5.23,1.87-8.52-.58-5.87-1.73-7.93-2.66-3.73-4.52-5.01Z"/>
        <polygon class="cls-1" points="67.88 8.17 89.1 8.17 89.1 64.72 96.84 64.72 96.84 8.17 118.06 8.17 118.06 1.19 67.88 1.19 67.88 8.17"/>
        <path class="cls-1" d="M188.17,40.6c0,1.2-.06,2.45-.19,3.73-.13,1.28-.35,2.45-.66,3.49-.48,1.68-1.16,3.21-2.04,4.58-.89,1.38-1.99,2.56-3.32,3.54-1.33.98-2.89,1.74-4.68,2.28-1.79.54-3.84.81-6.15.81-4.24,0-7.65-.89-10.23-2.66-2.58-1.77-4.42-4.19-5.53-7.27-.44-1.23-.77-2.6-.97-4.11-.21-1.5-.31-2.97-.31-4.39V1.19h-7.74v39.22c0,1.71.1,3.47.31,5.27.21,1.8.55,3.5,1.02,5.08.66,2.18,1.6,4.2,2.8,6.05,1.2,1.85,2.75,3.45,4.63,4.8,1.88,1.35,4.14,2.4,6.77,3.16,2.63.76,5.68,1.14,9.16,1.14s6.81-.41,9.52-1.24c2.71-.82,5.03-1.96,6.96-3.42,1.93-1.46,3.5-3.18,4.7-5.17,1.2-1.99,2.11-4.16,2.71-6.51.35-1.39.6-2.9.76-4.51.16-1.62.24-3.17.24-4.65V1.19h-7.74v39.41Z"/>
        <path class="cls-1" d="M276.4,13.79c-1.82-2.55-4.12-4.76-6.88-6.62-2.77-1.87-6.01-3.32-9.71-4.37-2.12-.6-4.42-1.02-6.89-1.26-2.47-.24-5.14-.36-8.03-.36h-14.53v63.53h14.39c2.88,0,5.56-.12,8.03-.36,2.47-.24,4.76-.66,6.88-1.26,3.7-1.04,6.94-2.52,9.71-4.42,2.77-1.9,5.08-4.16,6.93-6.77,1.85-2.61,3.24-5.55,4.15-8.81s1.38-6.74,1.38-10.45-.45-7.1-1.35-10.28c-.9-3.18-2.26-6.05-4.08-8.59ZM270.1,47.86c-2.69,3.96-6.56,6.73-11.6,8.31-1.92.6-4.07,1.01-6.45,1.23-2.37.22-5.05.33-8.04.33h-5.92V8.17h5.92c2.98,0,5.66.11,8.04.33,2.37.22,4.52.63,6.45,1.23,5.04,1.58,8.9,4.27,11.6,8.07,2.7,3.8,4.04,8.75,4.04,14.86s-1.35,11.24-4.04,15.19Z"/>
        <rect class="cls-1" x="313.55" y="1.19" width="7.74" height="63.53"/>
        <path class="cls-1" d="M410.54,19.68c-1.35-4.04-3.3-7.51-5.84-10.42-2.54-2.91-5.65-5.18-9.3-6.81-3.66-1.63-7.8-2.45-12.41-2.45s-8.6.82-12.25,2.45-6.74,3.9-9.3,6.81c-2.56,2.91-4.54,6.39-5.94,10.42-1.4,4.04-2.1,8.47-2.1,13.32s.68,9.23,2.03,13.25c1.35,4.02,3.3,7.49,5.84,10.4s5.65,5.18,9.33,6.81c3.67,1.63,7.84,2.45,12.48,2.45s8.55-.82,12.18-2.45c3.63-1.63,6.73-3.9,9.3-6.81s4.55-6.38,5.94-10.4c1.38-4.02,2.07-8.44,2.07-13.25s-.67-9.28-2.03-13.32ZM403.19,44.28c-1.12,3.25-2.66,5.96-4.63,8.14-1.97,2.18-4.27,3.83-6.91,4.94-2.64,1.11-5.5,1.66-8.57,1.66s-5.99-.55-8.66-1.66c-2.67-1.11-4.99-2.75-6.96-4.94-1.97-2.18-3.52-4.9-4.66-8.14-1.14-3.24-1.7-7-1.7-11.28s.56-8.04,1.68-11.3c1.12-3.26,2.66-5.98,4.63-8.17,1.97-2.18,4.29-3.84,6.96-4.96,2.67-1.12,5.54-1.69,8.62-1.69s5.95.56,8.62,1.69c2.67,1.12,4.99,2.78,6.96,4.96,1.97,2.18,3.51,4.91,4.63,8.17,1.12,3.26,1.68,7.03,1.68,11.3s-.56,8.03-1.68,11.28Z"/>
      </g>
      <g>
        <path class="cls-1" d="M64.48,131.57c-7.18-3.48-15.97-5.22-26.34-5.22H0v125.89h24.8v-39.85h17.79c8.21,0,15.14-1.28,20.78-3.85,5.64-2.57,10.15-5.96,13.51-10.18,3.36-4.22,5.81-8.92,7.36-14.11,1.54-5.19,2.31-10.35,2.31-15.48,0-8.66-1.88-16.16-5.64-22.49-3.76-6.33-9.24-11.23-16.42-14.71ZM60.81,175.1c-.63,2.17-1.65,4.25-3.08,6.24-1.43,2-3.39,3.65-5.9,4.96-2.51,1.31-5.65,1.97-9.41,1.97h-17.62v-37.97h17.79c4.33,0,7.78.74,10.35,2.22,2.57,1.48,4.47,3.31,5.73,5.47,1.25,2.17,2.08,4.31,2.48,6.41.4,2.11.6,3.79.6,5.05,0,1.6-.32,3.48-.94,5.64Z"/>
        <rect class="cls-1" x="131.79" y="126.36" width="24.8" height="125.89"/>
        <polygon class="cls-1" points="313.46 126.36 283.35 126.36 259.82 168.16 232.55 126.36 200.91 126.36 240.5 187.31 199.2 252.25 229.99 252.25 254.47 208.83 282.67 252.25 314.66 252.25 273.37 188.94 313.46 126.36"/>
        <polygon class="cls-1" points="382.08 201.1 436.13 201.1 436.13 177.16 382.08 177.16 382.08 150.3 443.15 150.3 443.15 126.36 357.28 126.36 357.28 252.25 445.54 252.25 445.54 228.3 382.08 228.3 382.08 201.1"/>
        <path class="cls-1" d="M640.91,121.4l-56.79,130.85h24.46l10.26-24.63h41.79l9.71,24.63h28.74l-56.79-130.85h-1.37ZM627.53,206.75l12.78-30.69,12.09,30.69h-24.87Z"/>
        <path class="cls-1" d="M809.77,205.72c0,3.99-1.17,7.81-3.51,11.46-2.34,3.65-5.5,6.61-9.49,8.89-3.99,2.28-8.55,3.42-13.68,3.42-4.68,0-8.98-1.14-12.91-3.42-3.93-2.28-7.1-5.24-9.49-8.89-2.39-3.65-3.59-7.47-3.59-11.46v-79.37h-24.8v79.88c0,9.24,2.28,17.42,6.84,24.55,4.56,7.13,10.69,12.72,18.39,16.76,7.7,4.05,16.22,6.07,25.57,6.07s18.07-2.02,25.83-6.07c7.75-4.05,13.91-9.63,18.47-16.76,4.56-7.13,6.84-15.31,6.84-24.55v-79.88h-24.46v79.37Z"/>
        <path class="cls-1" d="M966.11,198.2c3.48-4.22,5.99-8.9,7.53-14.03,1.54-5.13,2.31-10.26,2.31-15.4,0-6.5-1.08-12.34-3.25-17.53-2.17-5.19-5.33-9.63-9.49-13.34-4.16-3.7-9.32-6.56-15.48-8.55-6.16-1.99-13.17-2.99-21.04-2.99h-38.14v125.89h24.8v-40.03h16.52l26.59,40.03h28.91l-29.32-45.75c4.02-2.27,7.38-5.04,10.08-8.3ZM913.34,150.3h17.79c4.33,0,7.78.74,10.35,2.22,2.57,1.48,4.47,3.31,5.73,5.47,1.25,2.17,2.08,4.31,2.48,6.41.4,2.11.6,3.85.6,5.22,0,1.83-.31,3.79-.94,5.9-.63,2.11-1.65,4.14-3.08,6.07-1.43,1.94-3.39,3.54-5.9,4.79-2.51,1.26-5.64,1.88-9.41,1.88h-17.62v-37.97Z"/>
        <path class="cls-1" d="M1107.7,252.25h28.74l-56.79-130.85h-1.37l-56.79,130.85h24.46l10.26-24.63h41.79l9.71,24.63ZM1064.9,206.75l12.78-30.69,12.09,30.69h-24.87Z"/>
        <polygon class="cls-1" points="612.36 121.4 565.96 228.3 520.03 228.3 520.03 126.35 495.23 126.35 495.23 252.25 554.43 252.25 554.42 252.27 555.56 252.27 572.54 252.27 572.55 252.25 579.21 236.9 629.34 121.4 612.36 121.4"/>
      </g>
    </g>
  </g>
</svg>