<?xml version="1.0" encoding="UTF-8"?>
<svg id="Layer_2" xmlns="http://www.w3.org/2000/svg" xmlns:xlink="http://www.w3.org/1999/xlink" viewBox="0 0 1455.82 324.89">
  <defs>
    <style>
      .cls-1 {
        fill: #fff;
      }

      .cls-2 {
        filter: url(#outer-glow-1);
      }
    </style>
  </defs>
  <g id="Layer_1-2" data-name="Layer_1">
    <g class="cls-2">
      <g>
        <path class="cls-1" d="M509.42,43.58c-2.38-1.64-5.11-2.93-8.16-3.86-3.05-.93-6.16-1.78-9.31-2.55-2.35-.57-4.6-1.18-6.76-1.83-2.16-.65-4.06-1.48-5.7-2.49-1.64-1.01-2.94-2.3-3.91-3.86-.97-1.56-1.45-3.54-1.45-5.93,0-2.15.36-4.11,1.09-5.87.73-1.76,1.84-3.26,3.35-4.5,1.5-1.24,3.39-2.19,5.66-2.86,2.27-.67,4.95-1,8.03-1,4.1.04,7.94.51,11.53,1.4,3.59.89,7.07,2.05,10.43,3.47V4.5c-3.12-1.34-6.56-2.42-10.31-3.25-3.75-.83-7.8-1.25-12.14-1.25-3.81,0-7.4.47-10.77,1.4-3.37.93-6.34,2.37-8.92,4.32s-4.63,4.41-6.14,7.39c-1.51,2.98-2.27,6.54-2.27,10.67s.72,7.24,2.16,9.79c1.44,2.56,3.35,4.64,5.72,6.27,2.37,1.62,5.07,2.89,8.09,3.8,3.02.91,6.11,1.73,9.28,2.46,2.39.57,4.67,1.18,6.84,1.82,2.17.65,4.08,1.49,5.75,2.52,1.66,1.03,2.99,2.34,3.98,3.92.99,1.58,1.49,3.59,1.49,6.02,0,2.96-.57,5.42-1.7,7.39-1.14,1.97-2.68,3.52-4.62,4.65-1.95,1.14-4.21,1.95-6.78,2.43-2.58.49-5.28.73-8.12.73-1.74,0-3.61-.12-5.59-.36-1.99-.24-3.95-.58-5.9-1-1.95-.42-3.83-.94-5.66-1.55-1.83-.61-3.47-1.28-4.93-2.01v9.06c.93.57,2.21,1.14,3.83,1.7,1.62.57,3.44,1.08,5.44,1.52s4.12.8,6.33,1.07c2.21.26,4.37.4,6.48.4,4.58,0,8.8-.48,12.65-1.43,3.85-.95,7.19-2.41,10.01-4.38,2.82-1.97,5.03-4.48,6.63-7.54,1.6-3.06,2.4-6.7,2.4-10.92s-.74-7.52-2.21-10.16-3.41-4.78-5.79-6.42Z"/>
        <polygon class="cls-1" points="550.61 10.46 577.8 10.46 577.8 82.91 587.71 82.91 587.71 10.46 614.9 10.46 614.9 1.52 550.61 1.52 550.61 10.46"/>
        <path class="cls-1" d="M704.7,52.01c0,1.54-.08,3.13-.24,4.77-.16,1.64-.45,3.13-.85,4.47-.61,2.15-1.48,4.11-2.62,5.87-1.14,1.76-2.55,3.28-4.26,4.53-1.7,1.26-3.7,2.23-5.99,2.92-2.29.69-4.92,1.03-7.88,1.03-5.44,0-9.8-1.13-13.11-3.41-3.31-2.27-5.67-5.37-7.09-9.31-.57-1.58-.98-3.33-1.25-5.26-.26-1.93-.4-3.8-.4-5.63V1.52h-9.92v50.24c0,2.19.13,4.44.4,6.75.26,2.31.7,4.48,1.31,6.51.85,2.8,2.05,5.38,3.59,7.76,1.54,2.37,3.52,4.42,5.93,6.14,2.41,1.72,5.3,3.07,8.67,4.04,3.36.97,7.28,1.46,11.74,1.46s8.73-.53,12.2-1.58c3.47-1.05,6.44-2.51,8.91-4.38,2.47-1.86,4.48-4.08,6.02-6.63,1.54-2.56,2.7-5.33,3.47-8.33.44-1.78.77-3.71.97-5.78.2-2.07.3-4.06.3-5.96V1.52h-9.92v50.49Z"/>
        <path class="cls-1" d="M817.74,17.67c-2.33-3.26-5.27-6.09-8.82-8.49-3.55-2.39-7.69-4.26-12.44-5.6-2.72-.77-5.66-1.31-8.82-1.61-3.16-.3-6.59-.46-10.28-.46h-18.61v81.39h18.43c3.69,0,7.12-.15,10.28-.46,3.16-.3,6.1-.84,8.82-1.61,4.74-1.34,8.89-3.22,12.44-5.66,3.55-2.43,6.51-5.32,8.88-8.67,2.37-3.35,4.15-7.11,5.32-11.28s1.76-8.64,1.76-13.38-.58-9.09-1.73-13.17c-1.16-4.08-2.9-7.75-5.23-11.01ZM809.67,61.31c-3.45,5.07-8.4,8.62-14.85,10.65-2.47.77-5.22,1.3-8.26,1.58-3.04.28-6.47.42-10.29.42h-7.58V10.46h7.58c3.82,0,7.25.14,10.29.43,3.04.28,5.79.81,8.26,1.58,6.45,2.03,11.4,5.47,14.85,10.34,3.45,4.87,5.18,11.21,5.18,19.04s-1.73,14.4-5.18,19.46Z"/>
        <rect class="cls-1" x="865.33" y="1.52" width="9.92" height="81.39"/>
        <path class="cls-1" d="M989.57,25.21c-1.73-5.17-4.22-9.62-7.48-13.35-3.26-3.73-7.23-6.64-11.92-8.73s-9.99-3.13-15.9-3.13-11.02,1.04-15.69,3.13-8.64,5-11.92,8.73c-3.28,3.73-5.81,8.18-7.6,13.35-1.79,5.17-2.69,10.86-2.69,17.06s.87,11.82,2.59,16.97c1.73,5.15,4.22,9.59,7.48,13.32s7.24,6.64,11.95,8.73c4.71,2.09,10.04,3.13,15.99,3.13s10.95-1.05,15.6-3.13c4.65-2.09,8.62-5,11.92-8.73s5.83-8.17,7.6-13.32c1.77-5.15,2.65-10.81,2.65-16.97s-.86-11.89-2.59-17.06ZM980.16,56.72c-1.44,4.16-3.41,7.63-5.93,10.43-2.52,2.8-5.47,4.91-8.86,6.33-3.38,1.42-7.04,2.13-10.98,2.13s-7.68-.71-11.1-2.13c-3.42-1.42-6.4-3.53-8.92-6.33-2.52-2.8-4.51-6.27-5.97-10.43-1.46-4.16-2.18-8.97-2.18-14.45s.72-10.3,2.15-14.48c1.44-4.18,3.41-7.66,5.94-10.46,2.52-2.8,5.49-4.92,8.92-6.36,3.42-1.44,7.1-2.16,11.04-2.16s7.62.72,11.04,2.16c3.42,1.44,6.4,3.56,8.92,6.36,2.52,2.8,4.5,6.29,5.93,10.46,1.43,4.18,2.15,9,2.15,14.48s-.72,10.29-2.15,14.45Z"/>
      </g>
      <g>
        <path class="cls-1" d="M82.61,168.55c-9.2-4.45-20.45-6.68-33.74-6.68H0v161.27h31.77v-51.06h22.79c10.52,0,19.39-1.64,26.62-4.93,7.23-3.29,13-7.63,17.31-13.04,4.31-5.4,7.45-11.43,9.42-18.08,1.97-6.65,2.96-13.26,2.96-19.83,0-11.1-2.41-20.71-7.23-28.81-4.82-8.11-11.83-14.39-21.04-18.84ZM77.9,224.32c-.81,2.78-2.12,5.44-3.95,8-1.83,2.56-4.35,4.68-7.56,6.35-3.22,1.68-7.23,2.52-12.05,2.52h-22.57v-48.64h22.79c5.55,0,9.97.95,13.26,2.85,3.29,1.9,5.73,4.24,7.34,7.01,1.61,2.78,2.66,5.52,3.18,8.22.51,2.7.77,4.86.77,6.46,0,2.05-.41,4.46-1.21,7.23Z"/>
        <rect class="cls-1" x="168.83" y="161.87" width="31.77" height="161.27"/>
        <polygon class="cls-1" points="401.55 161.87 362.99 161.87 332.84 215.42 297.91 161.87 257.37 161.87 308.08 239.95 255.18 323.14 294.62 323.14 325.99 267.52 362.11 323.14 403.09 323.14 350.2 242.04 401.55 161.87"/>
        <polygon class="cls-1" points="489.46 257.62 558.71 257.62 558.71 226.95 489.46 226.95 489.46 192.54 567.69 192.54 567.69 161.87 457.69 161.87 457.69 323.14 570.76 323.14 570.76 292.46 489.46 292.46 489.46 257.62"/>
        <path class="cls-1" d="M821.03,155.51l-72.75,167.63h31.33l13.14-31.55h53.53l12.43,31.55h36.81l-72.75-167.63h-1.75ZM803.89,264.85l16.37-39.32,15.49,39.32h-31.86Z"/>
        <path class="cls-1" d="M1037.35,263.54c0,5.12-1.5,10.01-4.49,14.68-3,4.68-7.05,8.47-12.16,11.39-5.12,2.92-10.96,4.38-17.53,4.38-5.99,0-11.5-1.46-16.54-4.38-5.04-2.92-9.09-6.72-12.16-11.39-3.07-4.67-4.6-9.57-4.6-14.68v-101.67h-31.77v102.33c0,11.83,2.92,22.32,8.77,31.44,5.84,9.13,13.7,16.29,23.56,21.47,9.86,5.19,20.78,7.78,32.76,7.78s23.15-2.59,33.09-7.78c9.93-5.18,17.82-12.34,23.67-21.47,5.84-9.13,8.77-19.61,8.77-31.44v-102.33h-31.34v101.67Z"/>
        <path class="cls-1" d="M1237.62,253.9c4.45-5.4,7.67-11.4,9.64-17.97,1.97-6.57,2.96-13.15,2.96-19.72,0-8.33-1.39-15.81-4.16-22.46-2.78-6.65-6.83-12.34-12.16-17.09-5.33-4.75-11.94-8.4-19.83-10.96-7.89-2.55-16.87-3.83-26.95-3.83h-48.86v161.27h31.77v-51.27h21.16l34.06,51.27h37.03l-37.56-58.61c5.15-2.91,9.46-6.45,12.91-10.63ZM1170.02,192.54h22.79c5.55,0,9.97.95,13.26,2.85,3.29,1.9,5.73,4.24,7.34,7.01,1.61,2.78,2.66,5.52,3.18,8.22.51,2.7.77,4.93.77,6.68,0,2.34-.4,4.86-1.2,7.56-.81,2.7-2.12,5.3-3.94,7.78-1.83,2.49-4.35,4.53-7.56,6.14-3.21,1.61-7.23,2.41-12.05,2.41h-22.57v-48.64Z"/>
        <path class="cls-1" d="M1419.01,323.14h36.81l-72.75-167.63h-1.75l-72.75,167.63h31.33l13.14-31.55h53.53l12.43,31.55ZM1364.18,264.85l16.37-39.32,15.49,39.32h-31.87Z"/>
        <polygon class="cls-1" points="784.46 155.51 725.02 292.46 666.19 292.46 666.19 161.86 634.41 161.86 634.41 323.14 710.25 323.14 710.23 323.17 711.7 323.17 733.45 323.17 733.46 323.14 741.99 303.48 806.21 155.51 784.46 155.51"/>
      </g>
    </g>
  </g>
</svg>